{
  "accessors": [
    {
      "bufferView": 2,
      "componentType": 5126,
      "count": 6896,
      "max": [
        0.952455997467041,
        0.5219839811325073,
        2.348917007446289
      ],
      "min": [
        -1.0013740062713623,
        -0.5981510281562805,
        0.0013680000556632876
      ],
      "type": "VEC3"
    },
    {
      "bufferView": 2,
      "byteOffset": 82752,
      "componentType": 5126,
      "count": 6896,
      "max": [
        0.999267578125,
        0.9999383687973022,
        0.9999665021896362
      ],
      "min": [
        -0.9985893964767456,
        -0.9999942779541016,
        -1.0
      ],
      "type": "VEC3"
    },
    {
      "bufferView": 1,
      "componentType": 5126,
      "count": 6896,
      "max": [
        1.6258649826049805,
        0.9895690083503723
      ],
      "min": [
        0.002939000027254224,
        0.00648800004273653
      ],
      "type": "VEC2"
    },
    {
      "bufferView": 0,
      "componentType": 5125,
      "count": 33696,
      "type": "SCALAR"
    }
  ],
  "asset": {
    "extras": {
      "author": "tomanski (https://sketchfab.com/tomanski)",
      "license": "CC-BY-4.0 (http://creativecommons.org/licenses/by/4.0/)",
      "source": "https://sketchfab.com/3d-models/llama-84a81f49914e464d97e7414f13b5b993",
      "title": "Llama"
    },
    "generator": "Sketchfab-12.68.0",
    "version": "2.0"
  },
  "bufferViews": [
    {
      "buffer": 0,
      "byteLength": 134784,
      "name": "floatBufferViews",
      "target": 34963
    },
    {
      "buffer": 0,
      "byteLength": 55168,
      "byteOffset": 134784,
      "byteStride": 8,
      "name": "floatBufferViews",
      "target": 34962
    },
    {
      "buffer": 0,
      "byteLength": 165504,
      "byteOffset": 189952,
      "byteStride": 12,
      "name": "floatBufferViews",
      "target": 34962
    }
  ],
  "buffers": [
    {
      "byteLength": 355456,
      "uri": "scene.bin"
    }
  ],
  "images": [
    {
      "uri": "textures/Material_baseColor.png"
    }
  ],
  "materials": [
    {
      "doubleSided": true,
      "emissiveFactor": [
        0.4580717266730543,
        0.4580717266730543,
        0.4580717266730543
      ],
      "emissiveTexture": {
        "index": 0
      },
      "name": "Material",
      "pbrMetallicRoughness": {
        "baseColorTexture": {
          "index": 0
        },
        "metallicFactor": 0.0,
        "roughnessFactor": 0.6
      }
    }
  ],
  "meshes": [
    {
      "name": "Object_0",
      "primitives": [
        {
          "attributes": {
            "NORMAL": 1,
            "POSITION": 0,
            "TEXCOORD_0": 2
          },
          "indices": 3,
          "material": 0,
          "mode": 4
        }
      ]
    }
  ],
  "nodes": [
    {
      "children": [
        1
      ],
      "matrix": [
        0.42400068044662476,
        0.0,
        0.0,
        0.0,
        0.0,
        9.414706357771524e-17,
        -0.42400068044662476,
        0.0,
        0.0,
        0.42400068044662476,
        9.414706357771524e-17,
        0.0,
        0.0,
        0.0,
        0.0,
        1.0
      ],
      "name": "Sketchfab_model"
    },
    {
      "children": [
        2
      ],
      "name": "Alpaca.obj.cleaner.materialmerger.gles"
    },
    {
      "mesh": 0,
      "name": "Object_2"
    }
  ],
  "samplers": [
    {
      "magFilter": 9729,
      "minFilter": 9987,
      "wrapS": 10497,
      "wrapT": 10497
    }
  ],
  "scene": 0,
  "scenes": [
    {
      "name": "Sketchfab_Scene",
      "nodes": [
        0
      ]
    }
  ],
  "textures": [
    {
      "sampler": 0,
      "source": 0
    }
  ]
}
